<svg id="Layer_1" enable-background="new 0 0 512 512" height="512" viewBox="0 0 512 512" width="512" xmlns="http://www.w3.org/2000/svg"><g><path d="m240.547 351.81h30.905v29.876h-30.905z" fill="#43809f"/><path d="m508 443.5h-504c-2.209 0-4-1.791-4-4v-22.907c0-2.209 1.791-4 4-4h504c2.209 0 4 1.791 4 4v22.907c0 2.209-1.791 4-4 4z" fill="#43809f"/><path d="m302.358 412.593v30.907h-92.716v-30.907h30.905v-30.906h30.906v30.906z" fill="#f78e36"/><g><path d="m194.189 351.81h-123.622v-154.33c0-2.276 1.845-4.121 4.121-4.121h115.38c2.276 0 4.121 1.845 4.121 4.121z" fill="#f78e36"/><path d="m163.284 193.36v158.45h30.905v-154.33c0-2.276-1.845-4.121-4.121-4.121h-26.784z" fill="#f86f1b"/><path d="m317.811 351.81h-123.622v-279.189c0-2.276 1.845-4.121 4.121-4.121h115.38c2.276 0 4.121 1.845 4.121 4.121z" fill="#29cef6"/><path d="m286.905 68.5v283.31h30.905v-279.189c0-2.276-1.845-4.121-4.121-4.121z" fill="#22b5ed"/><path d="m441.433 351.81h-123.622v-189.56c0-2.276 1.845-4.121 4.121-4.121h115.38c2.276 0 4.121 1.845 4.121 4.121z" fill="#7be492"/><path d="m410.527 158.129v193.681h30.905v-189.56c0-2.276-1.845-4.121-4.121-4.121z" fill="#45d987"/></g><path d="m468.217 344.311h-424.434c-4.142 0-7.5 3.357-7.5 7.5s3.358 7.5 7.5 7.5h424.435c4.142 0 7.5-3.357 7.5-7.5s-3.359-7.5-7.501-7.5z" fill="#43809f"/></g></svg>