<svg id="Layer_1" enable-background="new 0 0 512 512" height="512" viewBox="0 0 512 512" width="512" xmlns="http://www.w3.org/2000/svg"><g><path d="m497.585 486h-483.17c-7.961 0-14.415-6.454-14.415-14.415v-32.915c0-7.961 6.454-14.415 14.415-14.415h483.17c7.961 0 14.415 6.454 14.415 14.415v32.915c0 7.961-6.454 14.415-14.415 14.415z" fill="#f3f3f3"/><path d="m481.095 424.255v61.745h16.483c7.965 0 14.423-6.45 14.423-14.407v-32.931c0-7.957-6.457-14.407-14.423-14.407z" fill="#e4e4e4"/><path d="m232.357 486h-217.942c-7.961 0-14.415-6.454-14.415-14.415v-32.915c0-7.961 6.454-14.415 14.415-14.415h217.943v61.745z" fill="#f78e36"/><path d="m201.452 424.255h30.905v61.745h-30.905z" fill="#f86f1b"/><path d="m124.097 486h-109.682c-7.961 0-14.415-6.454-14.415-14.415v-32.915c0-7.961 6.454-14.415 14.415-14.415h109.682z" fill="#29cef6"/><path d="m93.192 424.255h30.905v61.745h-30.905z" fill="#22b5ed"/><g><path d="m217.039 26c-102.41 0-185.433 82.934-185.433 185.235s83.022 185.235 185.433 185.235c93.42 0 170.693-69.013 183.546-158.788.319-2.229-1.243-4.291-3.478-4.562l-180.067-21.884 154.723-94.577c1.924-1.176 2.491-3.705 1.269-5.6-33.002-51.171-90.537-85.059-155.993-85.059z" fill="#f3f3f3"/></g><g fill="#e4e4e4"><path d="m375.22 114.542-.001.001c.007.011.014.021.02.032-.006-.011-.012-.022-.019-.033z"/><path d="m352.143 128.648 19.614-11.99c1.923-1.176 2.491-3.705 1.269-5.6-32.997-51.168-90.528-85.058-155.99-85.058-5.205 0-10.356.225-15.453.645 66.089 5.448 122.341 45.516 150.56 102.003z"/><path d="m217.036 396.47c93.422 0 170.698-69.016 183.546-158.79.319-2.229-1.243-4.29-3.478-4.562l-26.477-3.218c-8.863 88.469-80.039 158.588-169.043 165.924 5.096.421 10.247.646 15.452.646z"/></g><path d="m371.759 116.658-154.723 94.577v-185.235c65.457 0 123.001 33.888 155.993 85.058 1.221 1.895.653 4.424-1.27 5.6z" fill="#f78e36"/><path d="m217.036 28.586c59.339 9.946 109.115 48.034 135.107 100.063l19.616-11.991c1.923-1.176 2.491-3.705 1.27-5.6-32.992-51.17-90.536-85.058-155.993-85.058z" fill="#f86f1b"/><path d="m489.882 191.524c0 6.864-.372 13.636-1.102 20.306-.125 1.139-1.167 1.953-2.306 1.815l-176.152-21.407c-1.938-.236-2.492-2.781-.827-3.799l151.365-92.524c.976-.597 2.261-.29 2.849.692 16.624 27.758 26.173 60.228 26.173 94.917z" fill="#29cef6"/><path d="m439.556 108.938c12.422 24.865 19.42 52.907 19.42 82.586 0 6.301-.322 12.526-.937 18.665l28.435 3.456c1.138.138 2.181-.676 2.306-1.815.729-6.671 1.102-13.442 1.102-20.306 0-34.689-9.549-67.159-26.172-94.918-.588-.981-1.872-1.288-2.849-.692z" fill="#22b5ed"/><path d="m400.59 237.691c-2.295 16.017-6.635 31.365-12.76 45.785l-170.794-72.242 180.079 21.884c2.239.273 3.795 2.34 3.475 4.573z" fill="#ffc328"/><path d="m361.266 272.241 26.563 11.236c6.126-14.421 10.465-29.769 12.76-45.785.32-2.233-1.236-4.3-3.475-4.572l-26.488-3.219c-1.471 14.686-4.657 28.868-9.36 42.34z" fill="#ffb200"/><path d="m49.873 486h-35.458c-7.961 0-14.415-6.454-14.415-14.415v-32.915c0-7.961 6.454-14.415 14.415-14.415h35.459v61.745z" fill="#ffc328"/></g></svg>